0
SECTION
2
HEADER
9
$INSUNITS
70
4
0
ENDSEC
0
SECTION
2
TABLES
0
TABLE
2
LTYPE
0
LTYPE
72
65
70
64
2
CONTINUOUS
3
______
73
0
40
0
0
ENDTAB
0
TABLE
2
LAYER
0
ENDTAB
0
ENDSEC
0
SECTION
2
ENTITIES
0
LINE
8
front_outsideCutPath
10
0
20
123
11
0
21
92.25
0
LINE
8
front_outsideCutPath
10
0
20
92.25
11
6
21
92.25
0
LINE
8
front_outsideCutPath
10
6
20
92.25
11
6
21
33.75
0
LINE
8
front_outsideCutPath
10
6
20
33.75
11
0
21
33.75
0
LINE
8
front_outsideCutPath
10
0
20
33.75
11
0
21
3
0
LINE
8
front_outsideCutPath
10
0
20
3
11
52.25
21
3
0
LINE
8
front_outsideCutPath
10
52.25
20
3
11
52.25
21
9
0
LINE
8
front_outsideCutPath
10
52.25
20
9
11
110.75
21
9
0
LINE
8
front_outsideCutPath
10
110.75
20
9
11
110.75
21
3
0
LINE
8
front_outsideCutPath
10
110.75
20
3
11
169.25
21
3
0
LINE
8
front_outsideCutPath
10
169.25
20
3
11
169.25
21
9
0
LINE
8
front_outsideCutPath
10
169.25
20
9
11
227.75
21
9
0
LINE
8
front_outsideCutPath
10
227.75
20
9
11
227.75
21
3
0
LINE
8
front_outsideCutPath
10
227.75
20
3
11
280
21
3
0
LINE
8
front_outsideCutPath
10
280
20
3
11
280
21
33.75
0
LINE
8
front_outsideCutPath
10
280
20
33.75
11
274
21
33.75
0
LINE
8
front_outsideCutPath
10
274
20
33.75
11
274
21
92.25
0
LINE
8
front_outsideCutPath
10
274
20
92.25
11
280
21
92.25
0
LINE
8
front_outsideCutPath
10
280
20
92.25
11
280
21
123
0
LINE
8
front_outsideCutPath
10
280
20
123
11
227.75
21
123
0
LINE
8
front_outsideCutPath
10
227.75
20
123
11
227.75
21
117
0
LINE
8
front_outsideCutPath
10
227.75
20
117
11
169.25
21
117
0
LINE
8
front_outsideCutPath
10
169.25
20
117
11
169.25
21
123
0
LINE
8
front_outsideCutPath
10
169.25
20
123
11
110.75
21
123
0
LINE
8
front_outsideCutPath
10
110.75
20
123
11
110.75
21
117
0
LINE
8
front_outsideCutPath
10
110.75
20
117
11
52.25
21
117
0
LINE
8
front_outsideCutPath
10
52.25
20
117
11
52.25
21
123
0
LINE
8
front_outsideCutPath
10
52.25
20
123
11
0
21
123
0
LINE
8
left_outsideCutPath
10
289
20
123
11
289
21
92.25
0
LINE
8
left_outsideCutPath
10
289
20
92.25
11
283
21
92.25
0
LINE
8
left_outsideCutPath
10
283
20
92.25
11
283
21
33.75
0
LINE
8
left_outsideCutPath
10
283
20
33.75
11
289
21
33.75
0
LINE
8
left_outsideCutPath
10
289
20
33.75
11
289
21
3
0
LINE
8
left_outsideCutPath
10
289
20
3
11
356.75
21
3
0
LINE
8
left_outsideCutPath
10
356.75
20
3
11
356.75
21
9
0
LINE
8
left_outsideCutPath
10
356.75
20
9
11
415.25
21
9
0
LINE
8
left_outsideCutPath
10
415.25
20
9
11
415.25
21
3
0
LINE
8
left_outsideCutPath
10
415.25
20
3
11
473.75
21
3
0
LINE
8
left_outsideCutPath
10
473.75
20
3
11
473.75
21
9
0
LINE
8
left_outsideCutPath
10
473.75
20
9
11
532.25
21
9
0
LINE
8
left_outsideCutPath
10
532.25
20
9
11
532.25
21
3
0
LINE
8
left_outsideCutPath
10
532.25
20
3
11
590.75
21
3
0
LINE
8
left_outsideCutPath
10
590.75
20
3
11
590.75
21
9
0
LINE
8
left_outsideCutPath
10
590.75
20
9
11
649.25
21
9
0
LINE
8
left_outsideCutPath
10
649.25
20
9
11
649.25
21
3
0
LINE
8
left_outsideCutPath
10
649.25
20
3
11
707.75
21
3
0
LINE
8
left_outsideCutPath
10
707.75
20
3
11
717
21
3
0
LINE
8
left_outsideCutPath
10
717
20
3
11
717
21
33.75
0
LINE
8
left_outsideCutPath
10
717
20
33.75
11
723
21
33.75
0
LINE
8
left_outsideCutPath
10
723
20
33.75
11
723
21
92.25
0
LINE
8
left_outsideCutPath
10
723
20
92.25
11
717
21
92.25
0
LINE
8
left_outsideCutPath
10
717
20
92.25
11
717
21
123
0
LINE
8
left_outsideCutPath
10
717
20
123
11
649.25
21
123
0
LINE
8
left_outsideCutPath
10
649.25
20
123
11
649.25
21
117
0
LINE
8
left_outsideCutPath
10
649.25
20
117
11
590.75
21
117
0
LINE
8
left_outsideCutPath
10
590.75
20
117
11
590.75
21
123
0
LINE
8
left_outsideCutPath
10
590.75
20
123
11
532.25
21
123
0
LINE
8
left_outsideCutPath
10
532.25
20
123
11
532.25
21
117
0
LINE
8
left_outsideCutPath
10
532.25
20
117
11
473.75
21
117
0
LINE
8
left_outsideCutPath
10
473.75
20
117
11
473.75
21
123
0
LINE
8
left_outsideCutPath
10
473.75
20
123
11
415.25
21
123
0
LINE
8
left_outsideCutPath
10
415.25
20
123
11
415.25
21
117
0
LINE
8
left_outsideCutPath
10
415.25
20
117
11
356.75
21
117
0
LINE
8
left_outsideCutPath
10
356.75
20
117
11
356.75
21
123
0
LINE
8
left_outsideCutPath
10
356.75
20
123
11
298.25
21
123
0
LINE
8
left_outsideCutPath
10
298.25
20
123
11
289
21
123
0
LINE
8
top_outsideCutPath
10
732
20
437
11
732
21
369.25
0
LINE
8
top_outsideCutPath
10
732
20
369.25
11
726
21
369.25
0
LINE
8
top_outsideCutPath
10
726
20
369.25
11
726
21
310.75
0
LINE
8
top_outsideCutPath
10
726
20
310.75
11
732
21
310.75
0
LINE
8
top_outsideCutPath
10
732
20
310.75
11
732
21
252.25
0
LINE
8
top_outsideCutPath
10
732
20
252.25
11
726
21
252.25
0
LINE
8
top_outsideCutPath
10
726
20
252.25
11
726
21
193.75
0
LINE
8
top_outsideCutPath
10
726
20
193.75
11
732
21
193.75
0
LINE
8
top_outsideCutPath
10
732
20
193.75
11
732
21
135.25
0
LINE
8
top_outsideCutPath
10
732
20
135.25
11
726
21
135.25
0
LINE
8
top_outsideCutPath
10
726
20
135.25
11
726
21
76.75
0
LINE
8
top_outsideCutPath
10
726
20
76.75
11
732
21
76.75
0
LINE
8
top_outsideCutPath
10
732
20
76.75
11
732
21
18.25
0
LINE
8
top_outsideCutPath
10
732
20
18.25
11
732
21
9
0
LINE
8
top_outsideCutPath
10
732
20
9
11
778.25
21
9
0
LINE
8
top_outsideCutPath
10
778.25
20
9
11
778.25
21
3
0
LINE
8
top_outsideCutPath
10
778.25
20
3
11
836.75
21
3
0
LINE
8
top_outsideCutPath
10
836.75
20
3
11
836.75
21
9
0
LINE
8
top_outsideCutPath
10
836.75
20
9
11
895.25
21
9
0
LINE
8
top_outsideCutPath
10
895.25
20
9
11
895.25
21
3
0
LINE
8
top_outsideCutPath
10
895.25
20
3
11
953.75
21
3
0
LINE
8
top_outsideCutPath
10
953.75
20
3
11
953.75
21
9
0
LINE
8
top_outsideCutPath
10
953.75
20
9
11
1000
21
9
0
LINE
8
top_outsideCutPath
10
1000
20
9
11
1000
21
76.75
0
LINE
8
top_outsideCutPath
10
1000
20
76.75
11
1006
21
76.75
0
LINE
8
top_outsideCutPath
10
1006
20
76.75
11
1006
21
135.25
0
LINE
8
top_outsideCutPath
10
1006
20
135.25
11
1000
21
135.25
0
LINE
8
top_outsideCutPath
10
1000
20
135.25
11
1000
21
193.75
0
LINE
8
top_outsideCutPath
10
1000
20
193.75
11
1006
21
193.75
0
LINE
8
top_outsideCutPath
10
1006
20
193.75
11
1006
21
252.25
0
LINE
8
top_outsideCutPath
10
1006
20
252.25
11
1000
21
252.25
0
LINE
8
top_outsideCutPath
10
1000
20
252.25
11
1000
21
310.75
0
LINE
8
top_outsideCutPath
10
1000
20
310.75
11
1006
21
310.75
0
LINE
8
top_outsideCutPath
10
1006
20
310.75
11
1006
21
369.25
0
LINE
8
top_outsideCutPath
10
1006
20
369.25
11
1000
21
369.25
0
LINE
8
top_outsideCutPath
10
1000
20
369.25
11
1000
21
427.75
0
LINE
8
top_outsideCutPath
10
1000
20
427.75
11
1000
21
437
0
LINE
8
top_outsideCutPath
10
1000
20
437
11
953.75
21
437
0
LINE
8
top_outsideCutPath
10
953.75
20
437
11
953.75
21
443
0
LINE
8
top_outsideCutPath
10
953.75
20
443
11
895.25
21
443
0
LINE
8
top_outsideCutPath
10
895.25
20
443
11
895.25
21
437
0
LINE
8
top_outsideCutPath
10
895.25
20
437
11
836.75
21
437
0
LINE
8
top_outsideCutPath
10
836.75
20
437
11
836.75
21
443
0
LINE
8
top_outsideCutPath
10
836.75
20
443
11
778.25
21
443
0
LINE
8
top_outsideCutPath
10
778.25
20
443
11
778.25
21
437
0
LINE
8
top_outsideCutPath
10
778.25
20
437
11
732
21
437
0
LINE
8
back_outsideCutPath
10
0
20
246
11
0
21
215.25
0
LINE
8
back_outsideCutPath
10
0
20
215.25
11
6
21
215.25
0
LINE
8
back_outsideCutPath
10
6
20
215.25
11
6
21
156.75
0
LINE
8
back_outsideCutPath
10
6
20
156.75
11
0
21
156.75
0
LINE
8
back_outsideCutPath
10
0
20
156.75
11
0
21
126
0
LINE
8
back_outsideCutPath
10
0
20
126
11
52.25
21
126
0
LINE
8
back_outsideCutPath
10
52.25
20
126
11
52.25
21
132
0
LINE
8
back_outsideCutPath
10
52.25
20
132
11
110.75
21
132
0
LINE
8
back_outsideCutPath
10
110.75
20
132
11
110.75
21
126
0
LINE
8
back_outsideCutPath
10
110.75
20
126
11
169.25
21
126
0
LINE
8
back_outsideCutPath
10
169.25
20
126
11
169.25
21
132
0
LINE
8
back_outsideCutPath
10
169.25
20
132
11
227.75
21
132
0
LINE
8
back_outsideCutPath
10
227.75
20
132
11
227.75
21
126
0
LINE
8
back_outsideCutPath
10
227.75
20
126
11
280
21
126
0
LINE
8
back_outsideCutPath
10
280
20
126
11
280
21
156.75
0
LINE
8
back_outsideCutPath
10
280
20
156.75
11
274
21
156.75
0
LINE
8
back_outsideCutPath
10
274
20
156.75
11
274
21
215.25
0
LINE
8
back_outsideCutPath
10
274
20
215.25
11
280
21
215.25
0
LINE
8
back_outsideCutPath
10
280
20
215.25
11
280
21
246
0
LINE
8
back_outsideCutPath
10
280
20
246
11
227.75
21
246
0
LINE
8
back_outsideCutPath
10
227.75
20
246
11
227.75
21
240
0
LINE
8
back_outsideCutPath
10
227.75
20
240
11
169.25
21
240
0
LINE
8
back_outsideCutPath
10
169.25
20
240
11
169.25
21
246
0
LINE
8
back_outsideCutPath
10
169.25
20
246
11
110.75
21
246
0
LINE
8
back_outsideCutPath
10
110.75
20
246
11
110.75
21
240
0
LINE
8
back_outsideCutPath
10
110.75
20
240
11
52.25
21
240
0
LINE
8
back_outsideCutPath
10
52.25
20
240
11
52.25
21
246
0
LINE
8
back_outsideCutPath
10
52.25
20
246
11
0
21
246
0
LINE
8
right_outsideCutPath
10
289
20
246
11
289
21
215.25
0
LINE
8
right_outsideCutPath
10
289
20
215.25
11
283
21
215.25
0
LINE
8
right_outsideCutPath
10
283
20
215.25
11
283
21
156.75
0
LINE
8
right_outsideCutPath
10
283
20
156.75
11
289
21
156.75
0
LINE
8
right_outsideCutPath
10
289
20
156.75
11
289
21
126
0
LINE
8
right_outsideCutPath
10
289
20
126
11
356.75
21
126
0
LINE
8
right_outsideCutPath
10
356.75
20
126
11
356.75
21
132
0
LINE
8
right_outsideCutPath
10
356.75
20
132
11
415.25
21
132
0
LINE
8
right_outsideCutPath
10
415.25
20
132
11
415.25
21
126
0
LINE
8
right_outsideCutPath
10
415.25
20
126
11
473.75
21
126
0
LINE
8
right_outsideCutPath
10
473.75
20
126
11
473.75
21
132
0
LINE
8
right_outsideCutPath
10
473.75
20
132
11
532.25
21
132
0
LINE
8
right_outsideCutPath
10
532.25
20
132
11
532.25
21
126
0
LINE
8
right_outsideCutPath
10
532.25
20
126
11
590.75
21
126
0
LINE
8
right_outsideCutPath
10
590.75
20
126
11
590.75
21
132
0
LINE
8
right_outsideCutPath
10
590.75
20
132
11
649.25
21
132
0
LINE
8
right_outsideCutPath
10
649.25
20
132
11
649.25
21
126
0
LINE
8
right_outsideCutPath
10
649.25
20
126
11
707.75
21
126
0
LINE
8
right_outsideCutPath
10
707.75
20
126
11
717
21
126
0
LINE
8
right_outsideCutPath
10
717
20
126
11
717
21
156.75
0
LINE
8
right_outsideCutPath
10
717
20
156.75
11
723
21
156.75
0
LINE
8
right_outsideCutPath
10
723
20
156.75
11
723
21
215.25
0
LINE
8
right_outsideCutPath
10
723
20
215.25
11
717
21
215.25
0
LINE
8
right_outsideCutPath
10
717
20
215.25
11
717
21
246
0
LINE
8
right_outsideCutPath
10
717
20
246
11
649.25
21
246
0
LINE
8
right_outsideCutPath
10
649.25
20
246
11
649.25
21
240
0
LINE
8
right_outsideCutPath
10
649.25
20
240
11
590.75
21
240
0
LINE
8
right_outsideCutPath
10
590.75
20
240
11
590.75
21
246
0
LINE
8
right_outsideCutPath
10
590.75
20
246
11
532.25
21
246
0
LINE
8
right_outsideCutPath
10
532.25
20
246
11
532.25
21
240
0
LINE
8
right_outsideCutPath
10
532.25
20
240
11
473.75
21
240
0
LINE
8
right_outsideCutPath
10
473.75
20
240
11
473.75
21
246
0
LINE
8
right_outsideCutPath
10
473.75
20
246
11
415.25
21
246
0
LINE
8
right_outsideCutPath
10
415.25
20
246
11
415.25
21
240
0
LINE
8
right_outsideCutPath
10
415.25
20
240
11
356.75
21
240
0
LINE
8
right_outsideCutPath
10
356.75
20
240
11
356.75
21
246
0
LINE
8
right_outsideCutPath
10
356.75
20
246
11
298.25
21
246
0
LINE
8
right_outsideCutPath
10
298.25
20
246
11
289
21
246
0
LINE
8
bottom_outsideCutPath
10
732
20
880
11
732
21
812.25
0
LINE
8
bottom_outsideCutPath
10
732
20
812.25
11
726
21
812.25
0
LINE
8
bottom_outsideCutPath
10
726
20
812.25
11
726
21
753.75
0
LINE
8
bottom_outsideCutPath
10
726
20
753.75
11
732
21
753.75
0
LINE
8
bottom_outsideCutPath
10
732
20
753.75
11
732
21
695.25
0
LINE
8
bottom_outsideCutPath
10
732
20
695.25
11
726
21
695.25
0
LINE
8
bottom_outsideCutPath
10
726
20
695.25
11
726
21
636.75
0
LINE
8
bottom_outsideCutPath
10
726
20
636.75
11
732
21
636.75
0
LINE
8
bottom_outsideCutPath
10
732
20
636.75
11
732
21
578.25
0
LINE
8
bottom_outsideCutPath
10
732
20
578.25
11
726
21
578.25
0
LINE
8
bottom_outsideCutPath
10
726
20
578.25
11
726
21
519.75
0
LINE
8
bottom_outsideCutPath
10
726
20
519.75
11
732
21
519.75
0
LINE
8
bottom_outsideCutPath
10
732
20
519.75
11
732
21
461.25
0
LINE
8
bottom_outsideCutPath
10
732
20
461.25
11
732
21
452
0
LINE
8
bottom_outsideCutPath
10
732
20
452
11
778.25
21
452
0
LINE
8
bottom_outsideCutPath
10
778.25
20
452
11
778.25
21
446
0
LINE
8
bottom_outsideCutPath
10
778.25
20
446
11
836.75
21
446
0
LINE
8
bottom_outsideCutPath
10
836.75
20
446
11
836.75
21
452
0
LINE
8
bottom_outsideCutPath
10
836.75
20
452
11
895.25
21
452
0
LINE
8
bottom_outsideCutPath
10
895.25
20
452
11
895.25
21
446
0
LINE
8
bottom_outsideCutPath
10
895.25
20
446
11
953.75
21
446
0
LINE
8
bottom_outsideCutPath
10
953.75
20
446
11
953.75
21
452
0
LINE
8
bottom_outsideCutPath
10
953.75
20
452
11
1000
21
452
0
LINE
8
bottom_outsideCutPath
10
1000
20
452
11
1000
21
519.75
0
LINE
8
bottom_outsideCutPath
10
1000
20
519.75
11
1006
21
519.75
0
LINE
8
bottom_outsideCutPath
10
1006
20
519.75
11
1006
21
578.25
0
LINE
8
bottom_outsideCutPath
10
1006
20
578.25
11
1000
21
578.25
0
LINE
8
bottom_outsideCutPath
10
1000
20
578.25
11
1000
21
636.75
0
LINE
8
bottom_outsideCutPath
10
1000
20
636.75
11
1006
21
636.75
0
LINE
8
bottom_outsideCutPath
10
1006
20
636.75
11
1006
21
695.25
0
LINE
8
bottom_outsideCutPath
10
1006
20
695.25
11
1000
21
695.25
0
LINE
8
bottom_outsideCutPath
10
1000
20
695.25
11
1000
21
753.75
0
LINE
8
bottom_outsideCutPath
10
1000
20
753.75
11
1006
21
753.75
0
LINE
8
bottom_outsideCutPath
10
1006
20
753.75
11
1006
21
812.25
0
LINE
8
bottom_outsideCutPath
10
1006
20
812.25
11
1000
21
812.25
0
LINE
8
bottom_outsideCutPath
10
1000
20
812.25
11
1000
21
870.75
0
LINE
8
bottom_outsideCutPath
10
1000
20
870.75
11
1000
21
880
0
LINE
8
bottom_outsideCutPath
10
1000
20
880
11
953.75
21
880
0
LINE
8
bottom_outsideCutPath
10
953.75
20
880
11
953.75
21
886
0
LINE
8
bottom_outsideCutPath
10
953.75
20
886
11
895.25
21
886
0
LINE
8
bottom_outsideCutPath
10
895.25
20
886
11
895.25
21
880
0
LINE
8
bottom_outsideCutPath
10
895.25
20
880
11
836.75
21
880
0
LINE
8
bottom_outsideCutPath
10
836.75
20
880
11
836.75
21
886
0
LINE
8
bottom_outsideCutPath
10
836.75
20
886
11
778.25
21
886
0
LINE
8
bottom_outsideCutPath
10
778.25
20
886
11
778.25
21
880
0
LINE
8
bottom_outsideCutPath
10
778.25
20
880
11
732
21
880
0
ENDSEC
0
EOF